<svg viewBox="0 0 64 64" xmlns="http://www.w3.org/2000/svg">
  <path d="M32 2C32 2 12 24 12 38C12 49.05 20.95 58 32 58C43.05 58 52 49.05 52 38C52 24 32 2 32 2Z" fill="#1a7a6b" opacity="0.2"/>
  <path d="M32 12C32 12 18 28 18 38C18 45.73 24.27 52 32 52C39.73 52 46 45.73 46 38C46 28 32 12 32 12Z" fill="#1a7a6b" opacity="0.35"/>
  <ellipse cx="32" cy="39" rx="9" ry="11" fill="#0e5c53" opacity="0.5"/>
  <ellipse cx="32" cy="39" rx="5" ry="6.5" fill="#c9a96e" opacity="0.7"/>
  <ellipse cx="32" cy="39" rx="2" ry="2.8" fill="#0e5c53" opacity="0.8"/>
</svg>
